<svg xmlns="http://www.w3.org/2000/svg" viewBox="0 0 1600 1000">
  <defs>
    <linearGradient id="bg" x1="0" y1="1" x2="1" y2="0">
      <stop stop-color="#08090b"/>
      <stop offset=".55" stop-color="#252a2f"/>
      <stop offset="1" stop-color="#410a0c"/>
    </linearGradient>
    <radialGradient id="flare">
      <stop stop-color="#ef4444" stop-opacity=".65"/>
      <stop offset="1" stop-color="#7f1d1d" stop-opacity="0"/>
    </radialGradient>
  </defs>
  <rect width="1600" height="1000" fill="url(#bg)"/>
  <circle cx="1160" cy="390" r="520" fill="url(#flare)"/>
  <g opacity=".25" stroke="#fff" fill="none">
    <path d="M790 120h650M740 180h650M690 240h650M640 300h650"/>
    <circle cx="1110" cy="430" r="330"/>
    <circle cx="1110" cy="430" r="390"/>
  </g>
  <path d="m1090 150 105 62 42 126-65 103c102 67 164 181 180 358H824c20-177 91-296 196-355l-58-111 35-125Z" fill="#07090b"/>
  <path d="m1000 214 92-56 100 57-21 143-80 55-82-57Z" fill="#c8d0d5" opacity=".74"/>
  <path d="m1044 288 43 21 58-23" fill="none" stroke="#ef4444" stroke-width="9"/>
  <path d="M1372 122 943 858" stroke="#f8fafc" stroke-width="12" opacity=".58"/>
  <path d="M1386 108 957 844" stroke="#ef4444" stroke-width="2"/>
  <g fill="#fff" opacity=".32" font-family="Arial, sans-serif">
    <text x="1310" y="90" font-size="18" letter-spacing="8">SUBJECT 02</text>
    <text x="1310" y="122" font-size="11" letter-spacing="4">TEMPORARY MEDIA</text>
  </g>
</svg>
