<svg xmlns="http://www.w3.org/2000/svg" viewBox="0 0 1600 1000">
  <defs>
    <linearGradient id="bg" x1="0" y1="0" x2="1" y2="1">
      <stop stop-color="#0c0a07"/>
      <stop offset=".5" stop-color="#563018"/>
      <stop offset="1" stop-color="#11100e"/>
    </linearGradient>
    <radialGradient id="flare">
      <stop stop-color="#fb923c" stop-opacity=".7"/>
      <stop offset="1" stop-color="#9a3412" stop-opacity="0"/>
    </radialGradient>
  </defs>
  <rect width="1600" height="1000" fill="url(#bg)"/>
  <circle cx="1125" cy="460" r="500" fill="url(#flare)"/>
  <g fill="none" stroke="#fed7aa" opacity=".22">
    <path d="m780 800 320-620 320 620Z" stroke-width="3"/>
    <path d="m840 800 260-500 260 500Z"/>
    <path d="M710 730h770M750 680h690M790 630h610"/>
  </g>
  <path d="M1088 168c79 0 139 66 127 146-7 50-28 86-61 108 122 55 198 178 215 376H790c18-197 92-321 216-375-35-25-58-64-58-116 0-79 59-139 140-139Z" fill="#080706"/>
  <path d="M932 468 729 636l45 64 285-155M1230 450l226 183-52 69-274-151" fill="#17120e" stroke="#fdba74" stroke-width="8" opacity=".82"/>
  <path d="M875 652h530v61H875z" fill="#0b0907" transform="rotate(-9 1140 682)"/>
  <g fill="#fff" opacity=".32" font-family="Arial, sans-serif">
    <text x="1310" y="90" font-size="18" letter-spacing="8">SUBJECT 03</text>
    <text x="1310" y="122" font-size="11" letter-spacing="4">TEMPORARY MEDIA</text>
  </g>
</svg>
